<svg width="670" height="661" viewBox="0 0 670 661" fill="none" xmlns="http://www.w3.org/2000/svg">
<rect width="670" height="661" fill="#E5E5E5"/>
<rect width="1440" height="1024" transform="translate(-385 -168)" fill="#EBEBD3"/>
<g style="mix-blend-mode:multiply" filter="url(#filter0_d_0_1)">
<mask id="path-1-inside-1_0_1" fill="white">
<path d="M520 495.875C520 628.906 437.173 495.875 335 495.875C232.827 495.875 150 628.906 150 495.875C150 362.843 232.827 255 335 255C437.173 255 520 362.843 520 495.875Z"/>
</mask>
<path d="M520 495.875C520 628.906 437.173 495.875 335 495.875C232.827 495.875 150 628.906 150 495.875C150 362.843 232.827 255 335 255C437.173 255 520 362.843 520 495.875Z" stroke="#1E1E24" stroke-width="100" mask="url(#path-1-inside-1_0_1)"/>
<circle cx="335" cy="175" r="40" fill="#1E1E24"/>
</g>
<defs>
<filter id="filter0_d_0_1" x="146" y="135" width="378" height="428" filterUnits="userSpaceOnUse" color-interpolation-filters="sRGB">
<feFlood flood-opacity="0" result="BackgroundImageFix"/>
<feColorMatrix in="SourceAlpha" type="matrix" values="0 0 0 0 0 0 0 0 0 0 0 0 0 0 0 0 0 0 127 0" result="hardAlpha"/>
<feOffset dy="4"/>
<feGaussianBlur stdDeviation="2"/>
<feComposite in2="hardAlpha" operator="out"/>
<feColorMatrix type="matrix" values="0 0 0 0 0 0 0 0 0 0 0 0 0 0 0 0 0 0 0.25 0"/>
<feBlend mode="normal" in2="BackgroundImageFix" result="effect1_dropShadow_0_1"/>
<feBlend mode="normal" in="SourceGraphic" in2="effect1_dropShadow_0_1" result="shape"/>
</filter>
</defs>
</svg>
