<svg width="859" height="528" viewBox="0 0 859 528" fill="none" xmlns="http://www.w3.org/2000/svg">
<g style="mix-blend-mode:multiply" filter="url(#filter0_d_203_40)">
<mask id="path-1-inside-1_203_40" fill="white">
<path d="M468 359.24C468 486.95 382.039 359.24 276 359.24C169.961 359.24 84 486.95 84 359.24C84 231.53 169.961 128 276 128C382.039 128 468 231.53 468 359.24Z"/>
</mask>
<path d="M468 359.24C468 486.95 382.039 359.24 276 359.24C169.961 359.24 84 486.95 84 359.24C84 231.53 169.961 128 276 128C382.039 128 468 231.53 468 359.24Z" stroke="#1E1E24" stroke-width="100" mask="url(#path-1-inside-1_203_40)"/>
<circle cx="276" cy="78" r="30" fill="#1E1E24"/>
<mask id="path-3-inside-2_203_40" fill="white">
<path d="M721.358 416C593.915 416 490 333.62 490 232C490 130.38 593.915 48 721.358 48C848.802 48 721.358 130.38 721.358 232C721.358 333.62 848.802 416 721.358 416Z"/>
</mask>
<path d="M721.358 416C593.915 416 490 333.62 490 232C490 130.38 593.915 48 721.358 48C848.802 48 721.358 130.38 721.358 232C721.358 333.62 848.802 416 721.358 416Z" stroke="#1E1E24" stroke-width="100" mask="url(#path-3-inside-2_203_40)"/>
<circle cx="604" cy="232" r="30" fill="#1E1E24"/>
<path d="M263.012 489V484.92H269.492V459.48H263.012V455.4H280.532V459.48H274.1V484.92H280.532V489H263.012ZM333.176 489.576C331.384 489.576 329.8 489.176 328.424 488.376C327.08 487.544 326.024 486.424 325.256 485.016C324.488 483.608 324.104 482.024 324.104 480.264V463.512C324.104 462.648 323.896 461.864 323.48 461.16C323.064 460.456 322.504 459.896 321.8 459.48C321.096 459.064 320.328 458.856 319.496 458.856C318.664 458.856 317.896 459.064 317.192 459.48C316.52 459.896 315.976 460.456 315.56 461.16C315.176 461.864 314.984 462.648 314.984 463.512V489H310.376V464.136C310.376 462.376 310.76 460.792 311.528 459.384C312.296 457.976 313.368 456.872 314.744 456.072C316.12 455.24 317.704 454.824 319.496 454.824C321.32 454.824 322.92 455.24 324.296 456.072C325.672 456.872 326.744 457.976 327.512 459.384C328.28 460.792 328.664 462.376 328.664 464.136V480.888C328.664 481.752 328.872 482.536 329.288 483.24C329.704 483.944 330.248 484.504 330.92 484.92C331.624 485.336 332.376 485.544 333.176 485.544C333.976 485.544 334.712 485.336 335.384 484.92C336.056 484.504 336.584 483.944 336.968 483.24C337.384 482.536 337.592 481.752 337.592 480.888V455.4H342.2V480.264C342.2 482.024 341.816 483.608 341.048 485.016C340.28 486.424 339.224 487.544 337.88 488.376C336.536 489.176 334.968 489.576 333.176 489.576ZM372.859 489V464.136C372.859 462.44 373.243 460.936 374.011 459.624C374.779 458.312 375.819 457.288 377.131 456.552C378.443 455.784 379.931 455.4 381.595 455.4H393.547V459.48H382.123C380.715 459.48 379.579 459.928 378.715 460.824C377.883 461.688 377.467 462.792 377.467 464.136V470.952H391.771V475.032H377.467V489H372.859ZM421.73 489V484.92H428.21V459.48H421.73V455.4H439.25V459.48H432.818V484.92H439.25V489H421.73ZM491.894 489.576C490.102 489.576 488.518 489.176 487.142 488.376C485.798 487.544 484.742 486.424 483.974 485.016C483.206 483.608 482.822 482.024 482.822 480.264V463.512C482.822 462.648 482.614 461.864 482.198 461.16C481.782 460.456 481.222 459.896 480.518 459.48C479.814 459.064 479.046 458.856 478.214 458.856C477.382 458.856 476.614 459.064 475.91 459.48C475.238 459.896 474.694 460.456 474.278 461.16C473.894 461.864 473.702 462.648 473.702 463.512V489H469.094V464.136C469.094 462.376 469.478 460.792 470.246 459.384C471.014 457.976 472.086 456.872 473.462 456.072C474.838 455.24 476.422 454.824 478.214 454.824C480.038 454.824 481.638 455.24 483.014 456.072C484.39 456.872 485.462 457.976 486.23 459.384C486.998 460.792 487.382 462.376 487.382 464.136V480.888C487.382 481.752 487.59 482.536 488.006 483.24C488.422 483.944 488.966 484.504 489.638 484.92C490.342 485.336 491.094 485.544 491.894 485.544C492.694 485.544 493.43 485.336 494.102 484.92C494.774 484.504 495.302 483.944 495.686 483.24C496.102 482.536 496.31 481.752 496.31 480.888V455.4H500.918V480.264C500.918 482.024 500.534 483.608 499.766 485.016C498.998 486.424 497.942 487.544 496.598 488.376C495.254 489.176 493.686 489.576 491.894 489.576ZM530.762 489V484.92H537.242V459.48H530.762V455.4H548.282V459.48H541.85V484.92H548.282V489H530.762ZM591.364 489C589.54 489 587.956 488.616 586.612 487.848C585.3 487.048 584.276 485.976 583.54 484.632C582.836 483.256 582.484 481.72 582.484 480.024V459.48H572.26V455.4H597.316V459.48H587.092V480.6C587.092 481.848 587.476 482.888 588.244 483.72C589.044 484.52 590.1 484.92 591.412 484.92H593.62V489H591.364ZM634.198 489C632.342 489 630.694 488.568 629.254 487.704C627.846 486.808 626.742 485.64 625.942 484.2C625.142 482.76 624.742 481.192 624.742 479.496C624.742 477.96 625.094 476.52 625.798 475.176C626.534 473.832 627.59 472.776 628.966 472.008C627.622 471.144 626.598 470.072 625.894 468.792C625.19 467.512 624.838 466.168 624.838 464.76C624.838 463.032 625.238 461.464 626.038 460.056C626.87 458.648 627.99 457.528 629.398 456.696C630.806 455.832 632.358 455.4 634.054 455.4H647.35V459.48H634.582C633.59 459.48 632.71 459.72 631.942 460.2C631.174 460.68 630.566 461.32 630.118 462.12C629.67 462.888 629.446 463.768 629.446 464.76C629.446 465.688 629.67 466.536 630.118 467.304C630.598 468.072 631.238 468.696 632.038 469.176C632.838 469.624 633.718 469.848 634.678 469.848H645.574V473.928H635.014C633.83 473.928 632.806 474.2 631.942 474.744C631.11 475.256 630.454 475.944 629.974 476.808C629.526 477.64 629.302 478.536 629.302 479.496C629.302 480.456 629.526 481.352 629.974 482.184C630.422 483.016 631.062 483.688 631.894 484.2C632.726 484.68 633.702 484.92 634.822 484.92H647.35V489H634.198Z" fill="#1E1E24"/>
</g>
<defs>
<filter id="filter0_d_203_40" x="80" y="48" width="702" height="449.576" filterUnits="userSpaceOnUse" color-interpolation-filters="sRGB">
<feFlood flood-opacity="0" result="BackgroundImageFix"/>
<feColorMatrix in="SourceAlpha" type="matrix" values="0 0 0 0 0 0 0 0 0 0 0 0 0 0 0 0 0 0 127 0" result="hardAlpha"/>
<feOffset dy="4"/>
<feGaussianBlur stdDeviation="2"/>
<feComposite in2="hardAlpha" operator="out"/>
<feColorMatrix type="matrix" values="0 0 0 0 0 0 0 0 0 0 0 0 0 0 0 0 0 0 0.25 0"/>
<feBlend mode="normal" in2="BackgroundImageFix" result="effect1_dropShadow_203_40"/>
<feBlend mode="normal" in="SourceGraphic" in2="effect1_dropShadow_203_40" result="shape"/>
</filter>
</defs>
</svg>
